<svg width="378" height="178" viewBox="0 0 139 89" fill="none" xmlns="http://www.w3.org/2000/svg">
<g clip-path="url(#clip0_3298_1048)">
<path d="M5.84649 0.32373H133.492C136.382 0.32373 138.713 2.68946 138.713 5.59161V82.7942C138.713 85.7101 136.369 88.0621 133.492 88.0621H5.84649C2.9563 88.0621 0.625059 85.6964 0.625059 82.7942V5.60536C0.611426 2.68946 2.9563 0.32373 5.84649 0.32373Z" fill="#023963"/>
<path d="M22.1925 12.2348C21.8789 12.5649 21.4563 12.785 21.0064 12.8675C20.7201 12.8675 20.7065 12.5786 20.8974 12.1798C21.6335 10.7081 22.4106 9.92407 23.3786 9.92407H23.5558L22.1925 12.2348ZM23.5013 9.09882C21.7153 9.09882 20.6247 10.1716 19.6568 12.5374C19.4114 13.1288 19.275 13.8715 20.1067 13.8578C20.761 13.8028 21.3745 13.5689 21.9198 13.1838C21.8653 13.3901 21.8517 13.5965 21.8653 13.8028H23.1195C23.2013 13.1288 23.4195 12.4824 23.7603 11.9047L25.3144 9.1951C24.701 9.14008 24.1011 9.09882 23.5013 9.09882ZM32.3082 15.1232H31.8855C31.6265 15.1232 31.3675 15.0407 31.163 14.8756C30.9585 14.7106 30.8085 14.4767 30.7404 14.2154L30.1269 11.7809L28.9681 13.8165H27.6321L31.3539 7.2695C31.8174 6.41674 32.3218 6.10039 33.2216 6.10039H33.3579L30.8903 10.4605L32.7444 9.12633H34.244L31.1221 11.3545L32.3082 15.1232ZM22.4652 5.7978L18.9342 11.9184C18.5934 12.4961 18.3889 13.1426 18.3207 13.8165H16.9438C17.0938 12.895 17.4346 12.0285 17.9254 11.2445L20.3929 6.95316C20.8837 6.10039 21.3745 5.7978 22.2607 5.7978H22.4652ZM35.0757 12.2348C34.7621 12.5649 34.3531 12.785 33.9032 12.8675C33.6169 12.8675 33.6033 12.5786 33.7942 12.1798C34.5576 10.6943 35.3074 9.93783 36.289 9.93783H36.4662L35.0757 12.2348ZM36.3708 9.09882C34.5849 9.09882 33.4942 10.1716 32.5127 12.5374C32.2673 13.1288 32.1309 13.8715 32.9625 13.8578C33.6169 13.8028 34.2304 13.5689 34.7757 13.1838C34.7348 13.3901 34.7076 13.5965 34.7212 13.8028H35.9754C36.0572 13.1288 36.2754 12.4824 36.6162 11.9047L38.184 9.1951C37.5841 9.12633 36.9843 9.09882 36.3708 9.09882ZM20.0112 5.41268C18.757 5.41268 18.1026 5.75654 16.8756 6.67807L12.6903 9.80029H10.0183C9.25481 9.80029 8.62769 9.82779 8.1369 10.3092L7.45526 10.9694L11.3407 10.8181L7.34619 13.8028H9.07758L13.1675 10.7493C13.9582 10.7218 14.5035 10.6943 14.5171 10.6943C14.8171 10.6668 15.1034 10.5705 15.3624 10.4192C15.6214 10.2679 15.8395 10.0479 16.0031 9.80029H14.4353L17.7345 7.32452L15.2806 11.4508C14.8307 12.166 14.5444 12.9638 14.4217 13.8028H15.8395C15.9077 13.1288 16.1258 12.4824 16.4666 11.9047L19.8067 6.1279C20.0385 5.72903 20.243 5.39893 20.243 5.39893L20.0112 5.41268ZM26.6505 10.4192C26.6505 10.543 26.6777 10.6118 26.9231 10.7768L27.3049 11.0382C27.4821 11.1482 27.6184 11.2995 27.7139 11.4921C27.8093 11.6846 27.8502 11.8909 27.8365 12.0972C27.7002 13.0738 27.0049 13.8578 25.5462 13.8578C24.9873 13.8578 24.4283 13.8165 23.8694 13.7065L24.4283 12.7162C24.8373 12.7987 25.2463 12.8537 25.6553 12.8675C26.2006 12.8675 26.4187 12.6062 26.4596 12.3998C26.4596 12.2761 26.4187 12.1248 26.1597 11.9459L25.8598 11.7259C25.369 11.3683 25.2463 11.0794 25.3144 10.6393C25.4371 9.77278 26.3915 9.12633 27.7275 9.12633C28.191 9.12633 28.6409 9.15384 29.1044 9.20885L28.5727 10.1441C28.1637 10.1029 27.7547 10.0891 27.3321 10.1029C26.9231 10.0891 26.6914 10.2267 26.6505 10.4192ZM38.0613 12.4136C38.1976 12.4136 38.3339 12.4549 38.4566 12.5236C38.5793 12.6062 38.6611 12.7162 38.7157 12.8537C38.8247 13.1288 38.7702 13.4452 38.5793 13.6652C38.4839 13.7753 38.3612 13.844 38.2112 13.8715C38.0749 13.8991 37.9249 13.8853 37.8023 13.8303C37.6659 13.7753 37.5569 13.679 37.4887 13.5552C37.2978 13.2664 37.3387 12.8812 37.5705 12.6337C37.7068 12.4961 37.8841 12.4136 38.0613 12.4136ZM38.0613 13.734C38.1703 13.734 38.293 13.7065 38.3748 13.6377C38.4703 13.5689 38.5521 13.4864 38.593 13.3764C38.6339 13.2664 38.6475 13.1563 38.6339 13.0325C38.6202 12.9225 38.5657 12.8125 38.4839 12.7299C38.3203 12.5511 38.0749 12.4961 37.8704 12.5924C37.7614 12.6337 37.6796 12.7162 37.6114 12.8125C37.5432 12.9087 37.516 13.0188 37.516 13.1426C37.516 13.2251 37.5296 13.2939 37.5569 13.3626C37.5841 13.4314 37.625 13.5002 37.6796 13.5552C37.7341 13.6102 37.7886 13.6515 37.8568 13.679C37.9249 13.7202 37.9931 13.7478 38.0613 13.734ZM37.9658 13.5414H37.8295V12.7437H38.1022C38.1294 12.7437 38.1703 12.7437 38.1976 12.7574C38.2249 12.7712 38.2521 12.785 38.2794 12.8125C38.3067 12.84 38.3203 12.8675 38.3339 12.895C38.3476 12.9225 38.3612 12.9638 38.3612 12.9913C38.3612 13.0463 38.3476 13.1013 38.3203 13.1426C38.293 13.1838 38.2521 13.2113 38.1976 13.2388L38.3612 13.5552H38.1976L38.034 13.2526H37.9795L37.9658 13.5414ZM38.0749 13.1013C38.1567 13.1013 38.2112 13.06 38.2112 12.9775C38.2112 12.895 38.1703 12.8537 38.0749 12.8537H37.9658V13.0876H38.0749V13.1013Z" fill="url(#paint0_linear_3298_1048)"/>
<path d="M15.8805 20.8311V16.7323L14.1082 20.8311H13.4402L11.6679 16.7323V20.8311H10.959V15.5632H11.9406L13.781 19.8546L15.6351 15.5632H16.603V20.8311H15.8805Z" fill="url(#paint1_linear_3298_1048)"/>
<path d="M17.9254 15.3982C18.198 15.3982 18.4298 15.6183 18.4298 15.8933C18.4298 16.1684 18.2116 16.4023 17.939 16.4023C17.6663 16.4023 17.4346 16.1822 17.4346 15.9071C17.4346 15.632 17.6527 15.4119 17.9254 15.3982ZM17.5845 20.8311V17.255H18.2662V20.8311H17.5845Z" fill="url(#paint2_linear_3298_1048)"/>
<path d="M19.1387 20.8313V15.4534H19.834V20.8313H19.1387Z" fill="url(#paint3_linear_3298_1048)"/>
<path d="M23.965 19.8133C23.7468 20.5011 23.0925 20.9687 22.3699 20.9412C21.4156 20.9412 20.584 20.2397 20.584 19.0294C20.584 17.9015 21.3883 17.145 22.2745 17.145C23.3651 17.145 23.9786 17.9015 23.9786 19.0156C23.9786 19.0844 23.9786 19.1669 23.965 19.2357H21.3065C21.2929 19.8271 21.7564 20.3085 22.329 20.3222C22.3426 20.3222 22.3563 20.3222 22.3699 20.3222C22.8334 20.3498 23.2424 20.0472 23.3651 19.607L23.965 19.8133ZM23.2697 18.6855C23.256 18.1766 22.9289 17.7777 22.3017 17.7777C21.7837 17.7777 21.3611 18.1766 21.3338 18.6855H23.2697Z" fill="url(#paint4_linear_3298_1048)"/>
<path d="M25.5735 18.7956L26.5278 18.6581C26.7459 18.6306 26.8005 18.5205 26.8005 18.3967C26.8005 18.0529 26.5687 17.7503 26.037 17.7503C25.628 17.7228 25.26 18.0391 25.2327 18.4655V18.4793L24.5647 18.328C24.6328 17.6403 25.2463 17.1726 26.0098 17.1726C27.0731 17.1726 27.4821 17.7778 27.4821 18.4793V20.2673C27.4821 20.4599 27.4958 20.6662 27.523 20.8587H26.8414C26.8141 20.6937 26.8005 20.5424 26.8005 20.3773C26.5551 20.7625 26.1188 20.9963 25.6553 20.9688C24.9328 20.9688 24.4692 20.4599 24.4692 19.8959C24.4965 19.2357 24.96 18.8781 25.5735 18.7956ZM26.8005 19.3045V19.1395L25.7235 19.3045C25.4235 19.3458 25.2054 19.5246 25.2054 19.8409C25.2191 20.1435 25.4644 20.3773 25.7644 20.3636H25.778C26.3506 20.3636 26.8005 20.0885 26.8005 19.3045Z" fill="url(#paint5_linear_3298_1048)"/>
<path d="M28.75 20.8725C28.7909 21.3814 29.2136 21.7665 29.718 21.7528C30.4542 21.7528 30.795 21.3677 30.795 20.5974V20.0885C30.6314 20.4186 30.2497 20.6799 29.718 20.6799C28.7773 20.6799 28.0957 19.9647 28.0957 18.9469C28.0957 17.9841 28.75 17.2139 29.718 17.2139C30.2633 17.2139 30.6314 17.4202 30.8086 17.7778V17.2826H31.4903V20.5837C31.4903 21.4914 31.054 22.3717 29.718 22.3717C28.8318 22.3717 28.1775 21.8078 28.082 21.0375L28.75 20.8725ZM30.8359 18.9331C30.8359 18.2454 30.4269 17.7915 29.8271 17.7915C29.2272 17.7915 28.8046 18.2454 28.8046 18.9331C28.8046 19.6209 29.1999 20.0748 29.8271 20.0748C30.4133 20.0748 30.8359 19.6209 30.8359 18.9331Z" fill="url(#paint6_linear_3298_1048)"/>
<path d="M35.4847 19.8133C35.2666 20.5011 34.6122 20.9687 33.8897 20.9412C32.9354 20.9412 32.1038 20.2397 32.1038 19.0294C32.1038 17.9015 32.9081 17.145 33.7942 17.145C34.8849 17.145 35.4984 17.9015 35.4984 19.0156C35.4984 19.0844 35.4984 19.1669 35.4847 19.2357H32.8263C32.8127 19.8271 33.2762 20.3085 33.8488 20.3222C33.8624 20.3222 33.876 20.3222 33.8897 20.3222C34.3532 20.3498 34.7622 20.0472 34.8849 19.607L35.4847 19.8133ZM34.7895 18.6855C34.7758 18.1766 34.4486 17.7777 33.8215 17.7777C33.3035 17.7777 32.8808 18.1766 32.8536 18.6855H34.7895Z" fill="url(#paint7_linear_3298_1048)"/>
<path d="M37.966 18.6854V20.8448H37.2434V15.5769H39.1384C40.1063 15.5769 40.7471 16.2509 40.7471 17.1311C40.7471 18.0114 40.1063 18.6854 39.1384 18.6854H37.966ZM39.0157 18.0252C39.6428 18.0252 40.0245 17.6813 40.0245 17.1311C40.0245 16.581 39.6428 16.2234 39.0157 16.2234H37.966V18.0252H39.0157Z" fill="url(#paint8_linear_3298_1048)"/>
<path d="M41.2788 20.8313V15.4534H41.9741V20.8313H41.2788Z" fill="url(#paint9_linear_3298_1048)"/>
<path d="M43.8145 18.7954L44.7688 18.6579C44.9869 18.6304 45.0414 18.5204 45.0414 18.3966C45.0414 18.0527 44.8097 17.7501 44.278 17.7501C43.869 17.7226 43.5009 18.039 43.4736 18.4516V18.4653L42.8056 18.314C42.8738 17.6263 43.4873 17.1587 44.2507 17.1587C45.3141 17.1587 45.7231 17.7639 45.7231 18.4653V20.2534C45.7231 20.446 45.7367 20.6523 45.764 20.8448H45.0823C45.0551 20.6798 45.0414 20.5285 45.0414 20.3634C44.796 20.7485 44.3598 20.9824 43.8963 20.9549C43.1737 20.9549 42.7102 20.446 42.7102 19.882C42.7375 19.2356 43.201 18.878 43.8145 18.7954ZM45.0414 19.3044V19.1393L43.9644 19.3044C43.6645 19.3456 43.4464 19.5244 43.4464 19.8408C43.46 20.1434 43.7054 20.3772 44.0053 20.3634H44.019C44.5779 20.3634 45.0414 20.0883 45.0414 19.3044Z" fill="url(#paint10_linear_3298_1048)"/>
<path d="M47.25 20.8312H46.5684V17.2551H47.25V17.764C47.4681 17.3652 47.8908 17.1314 48.3406 17.1451C49.1859 17.1451 49.6085 17.764 49.6085 18.5618V20.8312H48.9132V18.6856C48.9132 18.1904 48.7087 17.7916 48.0953 17.7916C47.5499 17.7916 47.2773 18.2317 47.2773 18.7681L47.25 20.8312Z" fill="url(#paint11_linear_3298_1048)"/>
<path fill-rule="evenodd" clip-rule="evenodd" d="M119.478 71.1441C119.464 72.5333 120.705 73.3035 121.645 73.7712C122.613 74.2388 122.927 74.5552 122.927 74.9678C122.927 75.6143 122.163 75.9031 121.441 75.9169C120.2 75.9306 119.478 75.573 118.905 75.3117L118.455 77.4298C119.028 77.7049 120.091 77.925 121.209 77.9387C123.799 77.9387 125.503 76.6458 125.517 74.6377C125.531 72.0932 122.027 71.9556 122.054 70.814C122.068 70.4702 122.395 70.0988 123.104 70.0025C123.936 69.92 124.781 70.0713 125.544 70.4289L125.98 68.3795C125.244 68.0907 124.454 67.9531 123.663 67.9531C121.209 67.9669 119.491 69.2735 119.478 71.1441ZM130.152 68.1319C129.689 68.1319 129.28 68.407 129.102 68.8472L125.394 77.7874H127.985L128.503 76.3432H131.679L131.979 77.7874H134.269L132.279 68.1319H130.152ZM130.52 70.7452L131.27 74.3626H129.225L130.52 70.7452ZM116.342 68.1319L114.297 77.7737H116.765L118.81 68.1319H116.342ZM112.675 68.1319L110.098 74.6927L109.062 69.1085C108.98 68.5446 108.489 68.1182 107.917 68.1182H103.704L103.65 68.3933C104.509 68.5858 105.49 68.8884 106.09 69.2185C106.458 69.4248 106.553 69.5899 106.676 70.0713L108.653 77.7737H111.27L115.279 68.1182H112.675V68.1319Z" fill="url(#paint12_linear_3298_1048)"/>
<path d="M39.9017 40.1423C39.6018 40.1423 39.3564 39.8947 39.3564 39.5921C39.3564 39.4958 39.3837 39.4133 39.4246 39.3308C40.3107 37.694 40.3107 35.7272 39.4246 34.0904C39.2746 33.8291 39.3564 33.4852 39.6291 33.3339C39.8881 33.1826 40.2289 33.2651 40.3789 33.5402C40.3789 33.5402 40.3789 33.554 40.3925 33.554C41.4559 35.5208 41.4559 37.8866 40.3925 39.8534C40.2834 40.0322 40.0926 40.1423 39.9017 40.1423Z" fill="white"/>
<path d="M37.8705 39.0144C37.5706 39.0144 37.3252 38.7668 37.3252 38.4642C37.3252 38.368 37.3524 38.2854 37.3933 38.2029C37.8977 37.2676 37.8977 36.1535 37.3933 35.2182C37.2434 34.9569 37.3388 34.613 37.6114 34.4755C37.8705 34.3242 38.2113 34.4205 38.3476 34.6956C39.0429 35.961 39.0429 37.4877 38.3476 38.7531C38.2522 38.9044 38.075 39.0144 37.8705 39.0144Z" fill="white"/>
<path d="M37.8705 39.0144C37.5706 39.0144 37.3252 38.7668 37.3252 38.4642C37.3252 38.368 37.3524 38.2854 37.3933 38.2029C37.8977 37.2676 37.8977 36.1535 37.3933 35.2182C37.2434 34.9569 37.3388 34.613 37.6114 34.4755C37.8705 34.3242 38.2113 34.4205 38.3476 34.6956C39.0429 35.961 39.0429 37.4877 38.3476 38.7531C38.2522 38.9044 38.075 39.0144 37.8705 39.0144Z" fill="white"/>
<path d="M42.0286 41.3252C41.7287 41.3252 41.4833 41.0776 41.4833 40.775C41.4833 40.6787 41.5106 40.5824 41.5515 40.4999C42.8603 38.1342 42.8603 35.2595 41.5515 32.8938C41.4015 32.6325 41.497 32.2886 41.756 32.1373C42.015 31.986 42.3558 32.0823 42.5058 32.3436C43.9918 35.0395 43.9918 38.3267 42.5058 41.0226C42.424 41.2151 42.2331 41.3252 42.0286 41.3252Z" fill="white"/>
<path d="M44.169 42.508C44.0736 42.508 43.9782 42.4804 43.8964 42.4392C43.6373 42.2879 43.5419 41.9578 43.6919 41.6827C45.4233 38.588 45.4233 34.8056 43.6919 31.7246C43.5419 31.4633 43.6373 31.1194 43.8964 30.9681C44.1554 30.8168 44.4962 30.9131 44.6462 31.1745C46.5684 34.5993 46.5684 38.7943 44.6462 42.2191C44.5507 42.3979 44.3735 42.508 44.169 42.508Z" fill="white"/>
<path d="M44.169 42.508C44.0736 42.508 43.9782 42.4804 43.8964 42.4392C43.6373 42.2879 43.5419 41.9578 43.6919 41.6827C45.4233 38.588 45.4233 34.8056 43.6919 31.7246C43.5419 31.4633 43.6373 31.1194 43.8964 30.9681C44.1554 30.8168 44.4962 30.9131 44.6462 31.1745C46.5684 34.5993 46.5684 38.7943 44.6462 42.2191C44.5507 42.3979 44.3735 42.508 44.169 42.508Z" fill="white"/>
<path d="M16.6438 29.7991H32.3626C33.0306 29.7991 33.5623 30.3492 33.5623 31.0232V41.9853C33.5623 42.6593 33.017 43.2095 32.3626 43.2095H16.6438C15.9758 43.2095 15.4441 42.6593 15.4441 41.9853V31.0232C15.4441 30.3492 15.9894 29.7991 16.6438 29.7991Z" fill="url(#paint13_linear_3298_1048)"/>
<path d="M33.576 41.6826V41.2837H25.478C26.4732 40.8436 27.1958 39.7157 27.2639 38.3816H31.8855C31.5992 39.3168 31.1357 40.1834 30.4949 40.9123H31.0675C31.6265 40.1559 32.0491 39.2893 32.2945 38.3816H33.5487V37.9827H32.3899C32.4717 37.5838 32.5263 37.1849 32.5535 36.7861H32.1582C32.1309 37.1849 32.0764 37.5838 31.9809 37.9827H27.2094L27.0322 37.3087C26.9231 36.8823 26.9095 36.4422 26.9913 36.0021L27.223 34.943H32.0218C32.1036 35.3281 32.1445 35.7132 32.1718 36.0984H32.5672C32.5535 35.7132 32.499 35.3281 32.4308 34.943H33.5624V34.5441H32.3354C32.1173 33.6914 31.7492 32.8799 31.2584 32.1371H30.6994C31.2584 32.8524 31.6674 33.6639 31.9128 34.5441H26.8686V34.943L26.6504 35.9471C26.555 36.4147 26.5686 36.9099 26.6913 37.3775L26.814 37.8451C26.8413 37.9414 26.8549 38.024 26.8686 38.1202C26.8958 38.3128 26.8958 38.5054 26.8686 38.6842C26.6641 40.1146 25.6552 41.2012 24.4555 41.2012C23.2558 41.2012 22.2334 40.1146 22.0425 38.6979C22.0152 38.5054 22.0152 38.3128 22.0425 38.1202C22.0561 38.024 22.0698 37.9277 22.0834 37.8314L22.2743 36.9649C22.3697 36.4972 22.3561 36.0021 22.2334 35.5344L22.1107 35.0805C22.0834 34.9843 22.0698 34.888 22.0561 34.7917C22.0289 34.5991 22.0289 34.4203 22.0561 34.2278C22.247 32.7973 23.2558 31.7108 24.4692 31.7108H24.6055V31.697H33.5624V31.3119H30.6176C30.0996 30.7204 29.4861 30.2115 28.8181 29.7989H27.891C28.7772 30.1565 29.2952 30.6792 29.9633 31.3119H27.2094V31.1606C27.2094 30.6104 26.8549 30.129 26.296 29.7852H25.4098C26.2551 30.0052 26.8686 30.5416 26.8686 31.1606V31.3119H22.0289V31.1606C22.0289 30.5554 22.6424 30.0052 23.4876 29.7852H22.6015C22.0425 30.1153 21.688 30.6104 21.688 31.1606V31.3119H18.9342C19.6022 30.6792 20.1203 30.1565 21.0064 29.7989H20.0794C19.4113 30.2115 18.7979 30.7204 18.2798 31.3119H15.4032V31.7108H23.2967C22.3697 32.1922 21.7153 33.2787 21.6471 34.5441H17.0528C17.271 33.6776 17.6663 32.8661 18.198 32.1371H17.6391C17.1483 32.8661 16.7802 33.6776 16.562 34.5441H15.4032V34.943H16.4666C16.3984 35.3281 16.3439 35.7132 16.3303 36.0984H16.7938C16.8074 35.7132 16.862 35.3281 16.9438 34.943H21.688L21.8653 35.617C21.9743 36.0433 21.988 36.4835 21.9062 36.9236L21.6744 37.9964H16.971C16.8756 37.6113 16.8211 37.2124 16.7938 36.7998H16.3303C16.3576 37.1987 16.3985 37.5976 16.4939 37.9964H15.4032V38.3953H16.5893C16.8347 39.3031 17.2573 40.1696 17.8163 40.9261H18.3889C17.7754 40.1834 17.3255 39.3169 17.0665 38.3953H21.6199C21.688 39.7295 22.4106 40.8573 23.4058 41.2975H15.376V41.6963H18.4298C19.0023 42.3015 19.6704 42.8104 20.3929 43.2093H21.4835C20.4611 42.893 19.8885 42.3703 19.1114 41.6963H21.6335V41.9164C21.6335 42.4253 21.9471 42.893 22.4379 43.2231H23.2013C22.4788 42.9755 21.9607 42.4803 21.9607 41.9164V41.6963H26.8004V41.9164C26.8004 42.4666 26.296 42.9617 25.5598 43.2231H26.3233C26.814 42.893 27.1276 42.4253 27.1276 41.9164V41.6963H29.6497C28.8726 42.3703 28.2319 42.893 27.2094 43.2093H28.3682C29.0907 42.8104 29.7588 42.3015 30.3313 41.6963L33.576 41.6826Z" fill="#515254"/>
<path d="M24.5102 31.1881C24.849 31.1881 25.1237 30.911 25.1237 30.5691C25.1237 30.2273 24.849 29.9502 24.5102 29.9502C24.1714 29.9502 23.8967 30.2273 23.8967 30.5691C23.8967 30.911 24.1714 31.1881 24.5102 31.1881Z" fill="#515254"/>
<path d="M24.5102 43.0579C24.849 43.0579 25.1237 42.7808 25.1237 42.439C25.1237 42.0972 24.849 41.8201 24.5102 41.8201C24.1714 41.8201 23.8967 42.0972 23.8967 42.439C23.8967 42.7808 24.1714 43.0579 24.5102 43.0579Z" fill="#515254"/>
<path d="M137.909 15.0131C137.787 14.7793 137.664 14.5455 137.555 14.2979C137.282 13.6102 136.941 12.95 136.532 12.3448C136.491 12.276 136.437 12.221 136.396 12.1522C136.123 11.7671 135.851 11.382 135.851 10.9281C135.851 10.8318 135.864 10.7218 135.878 10.6255C135.892 10.5292 135.905 10.4192 135.905 10.3229C135.905 9.67645 135.387 9.25007 134.855 8.80993C134.433 8.46607 134.01 8.10846 133.847 7.62707C133.806 7.48952 133.765 7.35198 133.724 7.21444C133.601 6.78806 133.506 6.43044 133.165 6.03157C132.538 5.27509 131.652 4.54611 130.861 3.96843C130.179 3.45953 129.13 3.30823 128.216 3.17069C127.998 3.14318 127.78 3.10192 127.589 3.07441C127.262 3.01939 126.88 2.99188 126.648 3.21195C126.962 3.65209 127.439 3.92717 127.903 4.21601L128.107 4.3398C129.225 5.02751 130.207 5.90778 131.025 6.93935C131.393 7.42075 131.72 7.9159 132.033 8.43857C132.388 9.05751 132.797 9.64894 133.26 10.1991C134.297 11.3545 135.183 12.6199 135.932 13.9815C136.164 14.4079 136.369 14.8618 136.56 15.3019C137.555 17.6402 138.046 20.1847 137.977 22.7292C137.964 23.1969 138.018 23.7746 138.468 23.9121C138.577 23.9534 138.659 23.7058 138.727 23.3069V18.039C138.632 17.5026 138.536 16.98 138.468 16.4435C138.4 15.9071 138.155 15.4532 137.909 15.0131Z" fill="#023963"/>
<path d="M137.909 15.0131C137.787 14.7793 137.664 14.5455 137.555 14.2979C137.282 13.6102 136.941 12.95 136.532 12.3448C136.491 12.276 136.437 12.221 136.396 12.1522C136.123 11.7671 135.851 11.382 135.851 10.9281C135.851 10.8318 135.864 10.7218 135.878 10.6255C135.892 10.5292 135.905 10.4192 135.905 10.3229C135.905 9.67645 135.387 9.25007 134.855 8.80993C134.433 8.46607 134.01 8.10846 133.847 7.62707C133.806 7.48952 133.765 7.35198 133.724 7.21444C133.601 6.78806 133.506 6.43044 133.165 6.03157C132.538 5.27509 131.652 4.54611 130.861 3.96843C130.179 3.45953 129.13 3.30823 128.216 3.17069C127.998 3.14318 127.78 3.10192 127.589 3.07441C127.262 3.01939 126.88 2.99188 126.648 3.21195C126.962 3.65209 127.439 3.92717 127.903 4.21601L128.107 4.3398C129.225 5.02751 130.207 5.90778 131.025 6.93935C131.393 7.42075 131.72 7.9159 132.033 8.43857C132.388 9.05751 132.797 9.64894 133.26 10.1991C134.297 11.3545 135.183 12.6199 135.932 13.9815C136.164 14.4079 136.369 14.8618 136.56 15.3019C137.555 17.6402 138.046 20.1847 137.977 22.7292C137.964 23.1969 138.018 23.7746 138.468 23.9121C138.577 23.9534 138.659 23.7058 138.727 23.3069V18.039C138.632 17.5026 138.536 16.98 138.468 16.4435C138.4 15.9071 138.155 15.4532 137.909 15.0131Z" fill="url(#paint14_linear_3298_1048)"/>
<path d="M138.509 33.8564C138.468 33.9389 138.414 34.0077 138.359 34.0902C138.141 34.3653 137.937 34.6679 137.746 34.9705C137.637 35.1218 137.528 35.2731 137.405 35.4106C137.282 35.5482 137.159 35.6995 137.064 35.8645C136.996 35.9333 136.941 36.0158 136.9 36.1121C136.778 36.3734 136.737 36.6485 136.75 36.9373C136.764 37.0474 136.778 37.1436 136.805 37.2537C136.832 37.3637 136.86 37.4875 136.873 37.5975C136.928 37.9689 136.791 38.244 136.641 38.5466C136.587 38.6566 136.532 38.7529 136.491 38.8767C136.192 39.5369 135.864 40.1696 135.483 40.7748L135.387 40.9398C135.496 40.9948 135.605 40.8986 135.673 40.816L135.864 40.5822C136.505 39.867 137.091 39.1105 137.65 38.3265C137.991 37.8039 138.264 37.2399 138.482 36.6622C138.591 36.3321 138.659 35.9745 138.686 35.6307V33.5813C138.632 33.6501 138.564 33.7463 138.509 33.8564Z" fill="#023963"/>
<path d="M138.509 33.8564C138.468 33.9389 138.414 34.0077 138.359 34.0902C138.141 34.3653 137.937 34.6679 137.746 34.9705C137.637 35.1218 137.528 35.2731 137.405 35.4106C137.282 35.5482 137.159 35.6995 137.064 35.8645C136.996 35.9333 136.941 36.0158 136.9 36.1121C136.778 36.3734 136.737 36.6485 136.75 36.9373C136.764 37.0474 136.778 37.1436 136.805 37.2537C136.832 37.3637 136.86 37.4875 136.873 37.5975C136.928 37.9689 136.791 38.244 136.641 38.5466C136.587 38.6566 136.532 38.7529 136.491 38.8767C136.192 39.5369 135.864 40.1696 135.483 40.7748L135.387 40.9398C135.496 40.9948 135.605 40.8986 135.673 40.816L135.864 40.5822C136.505 39.867 137.091 39.1105 137.65 38.3265C137.991 37.8039 138.264 37.2399 138.482 36.6622C138.591 36.3321 138.659 35.9745 138.686 35.6307V33.5813C138.632 33.6501 138.564 33.7463 138.509 33.8564Z" fill="url(#paint15_linear_3298_1048)"/>
<path d="M93.7522 9.05745C93.7385 9.01619 93.7113 8.96117 93.5749 9.02994C93.1114 9.23625 92.6479 9.81393 92.2389 10.3228C92.0617 10.5704 91.8572 10.7905 91.6527 11.0106C90.8211 11.8358 90.0167 12.6886 89.2396 13.5688C88.6262 14.2703 88.0263 14.9855 87.6309 15.8245C86.5812 18.0252 86.3494 20.5147 86.5539 22.9217C86.663 24.2284 86.8811 25.5075 87.222 26.7729C87.3447 27.2818 87.4401 27.8045 87.4946 28.3409C87.5491 28.9323 87.6582 29.51 87.8218 30.0739C87.9172 30.3765 88.1081 30.6379 88.3808 30.8029C88.4762 30.8579 88.6807 30.8579 88.6807 30.5003C88.6671 28.0796 88.6943 25.6863 88.8034 23.2518C88.817 22.6054 88.8715 21.9589 88.967 21.3125C89.1851 19.5657 89.6214 17.8464 90.2757 16.2234C90.5484 15.5907 91.0528 14.9993 91.5709 14.3941C92.348 13.5001 93.125 12.5923 93.0978 11.5057C93.0978 11.4094 93.0978 11.3131 93.0841 11.2169C93.0705 11.0243 93.0705 10.8317 93.0978 10.6392C93.1659 10.3916 93.275 10.1578 93.4386 9.95147C93.6158 9.69014 93.793 9.41506 93.7522 9.05745C93.7658 9.0712 93.7522 9.05745 93.7522 9.05745Z" fill="#023963"/>
<path d="M93.7522 9.05745C93.7385 9.01619 93.7113 8.96117 93.5749 9.02994C93.1114 9.23625 92.6479 9.81393 92.2389 10.3228C92.0617 10.5704 91.8572 10.7905 91.6527 11.0106C90.8211 11.8358 90.0167 12.6886 89.2396 13.5688C88.6262 14.2703 88.0263 14.9855 87.6309 15.8245C86.5812 18.0252 86.3494 20.5147 86.5539 22.9217C86.663 24.2284 86.8811 25.5075 87.222 26.7729C87.3447 27.2818 87.4401 27.8045 87.4946 28.3409C87.5491 28.9323 87.6582 29.51 87.8218 30.0739C87.9172 30.3765 88.1081 30.6379 88.3808 30.8029C88.4762 30.8579 88.6807 30.8579 88.6807 30.5003C88.6671 28.0796 88.6943 25.6863 88.8034 23.2518C88.817 22.6054 88.8715 21.9589 88.967 21.3125C89.1851 19.5657 89.6214 17.8464 90.2757 16.2234C90.5484 15.5907 91.0528 14.9993 91.5709 14.3941C92.348 13.5001 93.125 12.5923 93.0978 11.5057C93.0978 11.4094 93.0978 11.3131 93.0841 11.2169C93.0705 11.0243 93.0705 10.8317 93.0978 10.6392C93.1659 10.3916 93.275 10.1578 93.4386 9.95147C93.6158 9.69014 93.793 9.41506 93.7522 9.05745C93.7658 9.0712 93.7522 9.05745 93.7522 9.05745Z" fill="url(#paint16_linear_3298_1048)"/>
<path d="M97.2422 5.21999L97.1876 5.26125C97.0104 5.37129 96.8059 5.45381 96.615 5.55009L96.3287 5.68764C95.7153 5.97648 95.1972 6.26532 95.1018 6.98054C95.0745 7.07682 95.0881 7.1731 95.1154 7.26938C95.129 7.28313 95.1427 7.31064 95.1563 7.32439C95.3063 7.51695 95.8243 7.24187 96.0697 7.11808L96.1379 7.09057C96.3287 6.96678 96.4787 6.80173 96.5741 6.59542L96.6423 6.48538C96.7105 6.37535 96.7786 6.26532 96.8468 6.15528C96.9013 6.07276 96.9559 6.00398 96.9968 5.92146C97.0649 5.82518 97.1331 5.7289 97.2013 5.63262C97.2694 5.53634 97.3376 5.44006 97.4057 5.33003C97.4466 5.27501 97.5012 5.16498 97.4603 5.13747C97.4194 5.0962 97.324 5.17873 97.2422 5.21999Z" fill="#023963"/>
<path d="M97.2422 5.21999L97.1876 5.26125C97.0104 5.37129 96.8059 5.45381 96.615 5.55009L96.3287 5.68764C95.7153 5.97648 95.1972 6.26532 95.1018 6.98054C95.0745 7.07682 95.0881 7.1731 95.1154 7.26938C95.129 7.28313 95.1427 7.31064 95.1563 7.32439C95.3063 7.51695 95.8243 7.24187 96.0697 7.11808L96.1379 7.09057C96.3287 6.96678 96.4787 6.80173 96.5741 6.59542L96.6423 6.48538C96.7105 6.37535 96.7786 6.26532 96.8468 6.15528C96.9013 6.07276 96.9559 6.00398 96.9968 5.92146C97.0649 5.82518 97.1331 5.7289 97.2013 5.63262C97.2694 5.53634 97.3376 5.44006 97.4057 5.33003C97.4466 5.27501 97.5012 5.16498 97.4603 5.13747C97.4194 5.0962 97.324 5.17873 97.2422 5.21999Z" fill="url(#paint17_linear_3298_1048)"/>
<path fill-rule="evenodd" clip-rule="evenodd" d="M114.474 15.0405C116.601 14.8617 118.4 14.8617 120.568 15.9896C121.1 16.2647 121.659 16.5948 122.204 16.9111C123.813 17.8464 125.34 18.7404 126.198 18.3828C126.771 18.1077 127.112 17.1862 126.553 14.9305C125.994 12.6748 124.944 11.2856 124.59 10.8867C124.235 10.4879 123.69 10.0477 123.322 10.254C122.954 10.4604 123.417 11.6982 123.772 12.2347C124.126 12.7711 124.167 13.1149 123.499 12.8811C122.749 12.6335 122.054 12.2072 121.495 11.6432C121.236 11.3544 120.991 11.0518 120.773 10.7354C120.214 9.97896 119.6 9.15371 119.205 9.36002C118.878 9.53883 118.973 10.0477 119.068 10.4604C119.137 10.763 119.191 11.0243 119.055 11.0931C118.728 11.2306 118.114 10.5429 117.582 9.77265C117.446 9.58009 117.31 9.38753 117.187 9.19497C116.805 8.60354 116.437 8.03962 115.878 7.86081C115.142 7.61323 113.247 7.39317 110.452 8.63105C107.821 9.80016 105.654 11.5332 104.318 12.8398C102.981 14.1465 102.954 14.7379 103.036 14.9855C103.131 15.2331 103.431 15.3844 104.195 15.3019L104.658 15.2606C105.804 15.1368 107.998 14.903 108.666 15.4119C109.103 15.7282 109.171 15.8108 109.239 16.6223C109.307 17.3787 109.375 17.3787 109.484 17.3925H109.512C109.621 17.4063 109.975 17.255 110.357 16.5672C110.752 15.8795 112.347 15.2193 114.474 15.0405ZM105.299 20.3909C104.686 20.5285 103.513 20.8861 102.886 21.1062C102.259 21.3262 102.054 20.9961 101.986 20.7898C101.809 20.3222 101.945 20.0746 102.477 19.8958L102.532 19.882C103.05 19.717 104.045 19.4006 104.263 19.3456L104.345 19.3319C104.549 19.2768 104.781 19.2081 105.272 19.3731C105.558 19.4694 106.022 19.5932 106.431 19.7032C106.826 19.8133 107.167 19.9095 107.249 19.937C107.426 20.0058 107.412 20.3359 107.085 20.2947C106.485 20.2259 105.885 20.2671 105.299 20.3909ZM116.996 19.9095C117.051 20.1571 117.651 20.0883 118.237 19.9645C118.837 19.8408 119.709 19.717 119.955 20.0883L120.023 20.2121C120.268 20.6248 120.65 21.285 121.304 21.8076C122.027 22.3853 122.927 22.8529 123.935 22.8117C124.903 22.7842 124.835 22.5228 124.808 22.4128V22.3991C124.794 22.3165 124.576 22.2753 124.399 22.289C124.222 22.3028 123.158 22.1102 122.463 21.505C122 21.0649 121.563 20.5972 121.154 20.1158C121.018 19.9645 120.909 19.827 120.813 19.717L120.8 19.7032C120.445 19.3319 120.009 18.878 118.959 18.988C117.91 19.098 116.887 19.4281 116.996 19.9095ZM125.599 21.45C124.644 21.5738 123.963 21.3812 123.963 21.1474C123.963 20.9549 124.235 20.9136 124.372 20.9136C124.481 20.9136 125.094 20.8173 125.571 20.7485C125.749 20.721 125.912 20.6935 126.021 20.6798C126.417 20.611 126.88 20.5697 126.921 20.8998C126.962 21.2299 126.539 21.3262 125.599 21.45ZM103.295 35.0117C103.486 34.9429 103.65 34.8466 103.813 34.7366C104.031 34.5853 104.249 34.4203 104.44 34.2415C104.658 34.0489 104.781 33.8426 105.013 33.3887C105.245 32.9211 105.081 32.6047 104.917 32.3159C104.781 32.0683 104.549 32.2058 104.372 32.3296L104.29 32.3709C104.127 32.4672 103.677 32.7835 103.309 33.0586L103.254 33.0999L103.186 33.1549C102.872 33.4025 102.654 33.7463 102.559 34.1452C102.45 34.4615 102.45 34.9292 102.709 35.053C102.886 35.163 103.118 35.0942 103.295 35.0117ZM117.76 35.0392C117.255 35.2318 116.492 35.5069 115.797 35.5344C113.465 35.4931 111.134 35.3143 108.816 34.9979C108.666 34.9842 108.476 34.9292 108.694 34.6403C108.857 34.4203 109.144 34.269 109.444 34.1039C109.648 33.9939 109.839 33.8839 110.03 33.7463C110.152 33.65 110.275 33.54 110.371 33.43C110.684 33.0861 111.079 32.811 111.516 32.646L111.543 32.6322C112.416 32.2746 113.07 32.0133 114.747 31.8757C116.424 31.7382 116.764 31.7657 117.023 31.9445C117.282 32.1233 117.514 32.3159 117.746 32.5222L117.869 32.6322C118.073 32.8385 118.346 33.0861 118.414 33.3199C118.482 33.6088 118.605 34.324 118.523 34.5165C118.441 34.7091 118.264 34.8191 117.76 35.0392ZM110.398 18.9192C109.989 18.933 109.743 19.5107 109.593 20.3909C109.566 20.5285 109.553 20.6523 109.525 20.7898C109.403 21.505 109.294 22.124 108.953 22.3303C108.516 22.5779 108.094 22.4541 107.848 22.3853C107.808 22.3715 107.767 22.3578 107.726 22.344C107.48 22.2478 107.208 22.2065 106.949 22.2202H106.908C106.526 22.234 106.267 22.2478 105.572 22.6329C105.422 22.7154 105.299 22.7842 105.19 22.8529C104.836 23.0868 104.44 23.2518 104.031 23.3343C103.69 23.4169 103.363 23.4719 103.022 23.5131H103.009H102.954C102.804 23.5269 102.722 23.5269 102.627 23.8983C102.518 24.3109 102.286 24.751 102.027 24.7923C101.864 24.806 101.686 24.7648 101.55 24.6547C101.523 24.641 101.509 24.6272 101.482 24.6135L101.386 24.5447C101.141 24.3522 100.882 24.1733 100.609 24.0221C100.337 23.912 99.7914 23.7745 99.3279 24.2146C98.8643 24.6547 98.1145 25.8926 97.8691 27.6532C97.6237 29.4137 97.4193 31.0917 97.8828 31.2568C98.0736 31.3256 98.3327 30.9542 98.6053 30.5553C98.9734 30.0189 99.3824 29.4137 99.805 29.5788C100.378 29.8126 100.2 33.9114 100.132 35.6444C100.119 35.8782 100.119 36.057 100.105 36.1946C100.091 36.3871 100.078 36.5797 100.064 36.7997C99.9959 37.8726 99.9004 39.2067 100.282 40.1695C100.732 41.3386 101.141 41.8888 102.954 43.3605C104.767 44.8322 105.067 45.1211 105.463 45.5062C105.994 45.9738 106.567 46.3727 107.18 46.7303C107.453 46.8541 108.039 46.9641 108.298 46.359C108.339 46.2627 108.38 46.1664 108.421 46.0564C108.626 45.5337 108.83 45.011 109.457 44.5159C110.234 43.9244 110.411 43.4018 110.221 43.0717C110.03 42.7416 109.703 42.7141 109.171 42.7966C109.075 42.8104 108.98 42.8379 108.857 42.8654C108.039 43.0717 107.194 43.113 106.362 42.9754C104.972 42.7553 102.886 42.2052 102.695 41.2424C102.613 40.8022 102.818 40.3621 102.995 39.9495C103.091 39.7569 103.172 39.5368 103.227 39.3305C103.241 39.2755 103.254 39.2067 103.268 39.1242C103.404 38.5603 103.609 37.6663 103.091 37.2536C102.709 36.951 102.395 37.3912 102.191 37.6525V37.6663C102 37.9414 101.468 38.2027 101.482 37.4875V37.4324C101.496 36.7447 101.523 36.0158 101.591 35.3831C101.645 34.9429 101.536 33.9664 101.468 33.6088C101.4 33.2512 101.523 32.6185 101.918 32.3571C102.164 32.2058 102.545 31.9995 102.886 31.8207C103.131 31.6832 103.363 31.5731 103.5 31.4906L103.527 31.4769C103.84 31.2843 104.168 31.078 104.195 30.5691C104.222 30.0602 104.59 29.0699 104.849 28.6022C105.095 28.1346 105.245 27.777 105.258 27.5294C105.272 27.2818 105.435 27.0617 105.858 26.993C106.267 26.9242 106.431 26.938 106.322 27.2818C106.294 27.3918 106.24 27.5019 106.199 27.6119C106.09 27.8732 105.981 28.1483 105.994 28.3822C106.008 28.726 106.199 28.9048 106.512 29.0699C106.84 29.2349 107.14 29.4275 107.93 29.1524L108.012 29.1249C108.803 28.8635 109.839 28.5059 110.493 28.561C110.957 28.616 111.42 28.7398 111.843 28.9598C112.034 29.0561 112.238 29.1249 112.443 29.1937L112.497 29.2074C112.865 29.3174 112.947 29.3449 113.67 29.5375C114.051 29.6475 114.283 29.5513 114.379 29.4825C114.529 29.3449 114.597 29.1386 114.529 28.9461C114.501 28.8498 114.474 28.7673 114.433 28.671C114.311 28.3409 114.174 27.942 114.42 27.832C114.747 27.6944 115.088 28.1346 115.333 28.726C115.578 29.3174 116.015 30.2665 116.383 30.6516C116.696 30.9955 117.146 31.1468 117.664 31.3256L117.869 31.3943C117.964 31.4218 118.046 31.4493 118.128 31.4769C118.591 31.6144 118.905 31.7107 119.123 32.591C119.368 33.6363 119.409 33.9939 119.423 34.4753C119.437 34.8604 119.396 35.2593 119.327 35.6444C119.273 35.892 119.246 36.1533 119.246 36.4146C119.246 36.5797 119.246 36.731 119.259 36.8685C119.273 37.3912 119.273 37.625 119.014 37.9138C118.905 38.0376 118.782 38.1477 118.646 38.0376C118.55 37.9551 118.591 37.8726 118.632 37.7763C118.646 37.7488 118.659 37.7075 118.673 37.6663C118.741 37.4875 118.728 37.2536 118.7 36.951C118.7 36.8685 118.687 36.7585 118.687 36.6622V36.6072C118.687 36.4972 118.673 36.3871 118.659 36.2771C118.646 36.0983 118.55 36.002 118.4 36.0295C118.264 36.057 118.128 36.0983 118.019 36.1671C117.828 36.2771 117.61 36.3321 117.405 36.3596C117.187 36.3734 116.86 36.3871 116.492 36.4009C116.028 36.4146 115.524 36.4421 115.142 36.4696C114.474 36.5247 113.029 36.6072 111.911 36.6485C110.902 36.6897 109.893 36.676 108.885 36.5797C108.339 36.5247 108.012 36.4697 107.794 36.4421C107.644 36.4146 107.508 36.4009 107.358 36.4009C107.14 36.4009 106.144 36.5109 105.967 37.1849C105.872 37.5425 105.913 37.68 106.172 37.735C106.308 37.7625 106.676 37.8038 107.071 37.8313C107.426 37.8588 107.794 37.9001 108.039 37.9276H108.053C108.585 37.9964 109.743 38.1614 110.302 38.1752C110.793 38.1752 111.407 38.1477 111.857 38.1339L112.061 38.1202C112.47 38.1202 113.465 38.1889 113.506 39.5644C113.506 40.032 113.547 40.4446 113.861 40.6784C114.174 40.9123 115.428 41.5037 116.546 41.9851C117.664 42.4665 118.714 42.5353 119.287 42.3152C119.859 42.0951 120.064 41.7238 119.886 41.1874C119.709 40.6509 119.668 40.2521 119.9 40.0733C120.132 39.8945 120.391 39.7019 121.468 39.7569C121.604 39.7707 121.754 39.7844 121.904 39.8119C122.408 39.8807 122.94 39.9632 123.213 39.5644C123.24 39.5231 123.267 39.4818 123.295 39.4406C123.704 38.8491 123.799 38.7116 124.644 38.1339C125.544 37.5287 125.994 37.1161 125.953 35.5894C125.939 35.3005 125.939 34.9842 125.926 34.6403C125.871 33.0999 125.817 31.078 125.994 29.7163C126.144 28.6435 126.648 27.9283 127.139 27.2543C127.385 26.9242 127.603 26.5941 127.794 26.2365C128.298 25.2737 128.516 24.7648 127.794 24.3934C127.671 24.3246 127.562 24.2696 127.453 24.2009C126.962 23.9258 126.689 23.7745 126.28 23.6919C126.076 23.6369 125.871 23.6094 125.667 23.6094C125.585 23.6094 125.517 23.5957 125.435 23.5957C125.217 23.5544 125.162 23.5544 125.135 23.6094C125.108 23.6644 125.176 23.7332 125.38 23.857L125.421 23.8845C125.721 24.0496 126.008 24.2421 126.267 24.4622C126.512 24.696 126.771 24.9436 126.607 25.1912C126.471 25.4387 125.953 25.3562 125.599 25.1499C125.421 25.0536 125.19 24.9023 124.999 24.7648C124.849 24.6547 124.699 24.5585 124.535 24.4759C124.344 24.4072 124.194 24.3934 124.249 24.586C124.249 24.6135 124.263 24.6272 124.263 24.6547C124.317 24.8336 124.372 25.0261 124.249 25.1224C124.099 25.2462 123.649 25.2462 123.24 24.9023C123.09 24.7785 122.94 24.641 122.817 24.4897C122.627 24.2834 122.422 24.0908 122.204 23.912C122.013 23.7607 121.809 23.6094 121.591 23.4994C121.468 23.4306 121.345 23.3618 121.236 23.2793L121.086 23.1693C120.868 22.9767 120.609 22.8392 120.336 22.7429C119.955 22.6329 118.878 22.4128 117.31 22.6741C116.778 22.7704 116.246 22.8804 115.715 23.0317C115.36 23.128 115.142 23.1968 114.897 23.1693C114.61 23.128 114.556 23.0455 114.46 22.7567C114.365 22.4678 114.311 22.4266 114.161 22.3578C114.092 22.3303 114.024 22.3165 113.942 22.3028C113.806 22.289 113.683 22.2478 113.561 22.1927L113.465 22.1515C113.165 22.0277 112.606 21.7801 112.02 20.9273C111.788 20.5972 111.584 20.2396 111.379 19.882C111.27 19.6895 111.189 19.5382 111.093 19.4006C110.861 18.988 110.711 18.9055 110.398 18.9192ZM120.336 37.4187C120.118 37.9138 120.595 37.9138 120.663 37.9138C120.813 37.9138 120.95 37.9138 121.1 37.9276C121.277 37.9276 121.331 37.7625 121.4 37.515C121.468 37.2674 121.509 36.4834 121.522 35.0805C121.55 34.3377 121.413 33.5813 121.1 32.9073C121.059 32.8248 121.032 32.756 121.004 32.6872C120.977 32.6185 120.95 32.5222 120.923 32.4672C120.841 32.2333 120.813 32.1371 120.718 32.1508C120.5 32.1921 120.445 32.2058 120.336 32.3296C120.227 32.4534 120.241 32.5084 120.309 32.7973C120.323 32.8385 120.323 32.866 120.336 32.9211C120.35 32.9623 120.364 33.0173 120.377 33.0723C120.527 33.65 120.609 34.2415 120.609 34.8329C120.636 35.8094 120.541 36.9098 120.336 37.4187ZM103.118 24.5447C103.404 24.5447 103.786 24.4897 104.699 24.2559C105.613 24.0221 106.022 23.6782 106.158 23.5544C106.308 23.4306 106.335 23.4169 106.499 23.5407C106.581 23.5957 106.662 23.6369 106.744 23.6644C106.853 23.7057 106.949 23.7607 107.044 23.8157C107.276 23.9533 107.317 24.1733 107.112 24.3934C106.935 24.5722 106.499 24.751 106.035 24.9573L105.926 25.0124C105.381 25.2462 104.795 25.3975 104.195 25.4525C103.704 25.4938 103.2 25.4387 102.736 25.2599C102.559 25.1912 102.504 24.9986 102.627 24.7648C102.695 24.5997 102.872 24.5172 103.05 24.5447H103.118ZM116.41 23.912C116.233 23.9258 116.056 23.9395 115.878 23.9395C115.824 23.9395 115.756 23.9395 115.701 23.9258C115.401 23.912 115.142 23.8983 115.169 24.3797C115.183 24.6685 115.278 24.9023 115.497 24.9161C115.537 24.9161 115.606 24.9298 115.701 24.9436C116.26 25.0261 116.819 25.0536 117.392 25.0399C118.291 24.9986 118.796 24.9573 119.437 24.6135C120.077 24.2696 120.541 23.967 120.404 23.7057C120.268 23.4444 120.214 23.3618 120.064 23.4719L119.995 23.5269C119.764 23.7332 119.477 23.857 119.164 23.8983C118.659 23.9808 118.141 23.9808 117.637 23.912C117.46 23.8983 117.296 23.8845 117.146 23.8708C116.901 23.8708 116.655 23.8845 116.41 23.912Z" fill="url(#paint18_linear_3298_1048)"/>
<path d="M83.3637 4.22994C81.8778 5.59161 81.3188 6.12802 80.4736 7.76478C79.6147 9.4428 77.9924 15.3846 76.8063 18.108C76.4246 18.9745 74.5432 22.8532 74.5432 23.871C74.5432 24.545 74.775 26.952 74.9113 29.2764C74.9658 30.0467 75.2249 31.037 75.5657 32.1098V27.7772C75.5657 23.9123 77.4061 18.4243 78.1423 16.43C78.8649 14.4769 79.9555 11.8498 80.5962 10.4056C81.237 8.9614 81.7687 7.26963 83.3501 5.44031C84.2226 4.4225 86.8402 2.13929 88.9669 0.32373H86.5539C85.8177 1.46533 84.6998 2.99205 83.3637 4.22994Z" fill="#6F7994"/>
<path d="M137.773 43.0993C137.323 43.4706 136.832 43.787 136.328 44.0758C135.932 44.2959 135.564 44.5435 135.196 44.791C134.801 45.1212 134.419 45.4788 134.092 45.8639C133.342 46.6754 132.524 47.5694 131.72 47.6107C131.461 47.6107 131.202 47.5694 130.943 47.4869C130.793 47.4456 130.629 47.4044 130.466 47.3769C129.811 47.3081 129.198 47.5969 128.625 47.8858C127.957 48.1883 127.262 48.4634 126.553 48.6697C126.062 48.8348 125.571 48.9998 125.067 49.1924C124.058 49.605 123.09 50.3203 122.163 50.9942C121.89 51.2005 121.618 51.3931 121.345 51.5856L120.895 51.902C118.646 53.4975 116.369 55.1067 113.738 56.0145C113.329 56.1521 112.715 56.1933 112.566 55.7807C112.47 55.5056 112.675 55.2855 112.865 55.0517C113.029 54.8592 113.193 54.6666 113.234 54.4328C112.852 54.3503 112.525 54.5978 112.197 54.8454C112.143 54.8867 112.075 54.9279 112.02 54.9692C111.611 55.3268 111.42 55.4781 111.42 55.4781C110.82 55.9733 109.212 56.4409 108.489 56.5784C107.767 56.716 105.954 56.7572 102.559 56.7572C99.1643 56.7572 97.2693 55.8907 96.6967 55.6294C96.1241 55.3681 94.9653 54.4603 94.3791 54.0201C93.8065 53.58 92.4705 53.0161 92.4705 53.0161C92.4705 53.0161 89.1713 50.8704 87.3718 49.3024C85.5586 47.7345 84.059 45.5063 83.5136 44.4885C82.9683 43.4706 81.755 34.0765 81.755 32.0821C81.755 30.968 81.9322 29.0149 82.0958 27.5157C81.9867 26.3879 82.0685 25.2463 82.3276 24.1459C82.5593 23.2106 82.9274 22.3166 83.2955 21.4363C83.4864 20.9962 83.6636 20.5423 83.8408 20.1022C84.3044 18.8505 84.5906 17.5301 84.8769 16.2235C85.1087 15.1644 85.3405 14.1191 85.6677 13.0875C85.8858 12.4136 86.1721 11.7809 86.5538 11.1757C86.6901 10.9281 86.8401 10.6805 86.9901 10.3917C87.5081 9.44263 88.2034 8.61738 88.8987 7.77837L89.0077 7.65458C90.8209 5.42639 92.934 3.47329 95.2653 1.82278L95.5925 1.58896C96.0423 1.27261 96.4922 0.94251 96.9967 0.763705C97.1739 0.708688 97.3647 0.653671 97.5556 0.626162C97.8692 0.571145 98.1691 0.474865 98.4417 0.309814H93.3567C93.2885 0.39234 93.2203 0.461111 93.1522 0.529882C92.4296 1.25886 88.5442 5.66022 88.0125 6.27916C87.4808 6.8981 85.5041 9.20881 84.8088 10.0341C84.1135 10.8593 83.4318 11.4645 82.982 12.1935C82.5321 12.9225 81.4142 14.4354 80.937 15.8384C80.4735 17.2413 79.6691 18.823 79.5192 20.6523C79.3692 22.4817 79.5737 24.3247 79.451 25.5076C79.3283 26.6905 77.0652 28.8224 76.9153 31.6007C76.9153 32.6736 77.4879 36.3322 77.8287 38.4641C77.9514 38.8905 78.0332 39.3169 78.0741 39.757C78.0741 39.8533 78.0877 39.9496 78.0877 40.0321C78.1968 41.9027 78.5512 42.109 78.5512 42.109C78.5512 42.109 81.0461 44.0758 82.5184 46.0152C83.9908 47.9545 85.654 51.0767 86.6083 51.9845C87.5626 52.8923 99.8323 60.4571 100.691 60.911C101.55 61.3649 108.012 62.1352 110.371 62.1352C112.729 62.1352 118.891 61.8738 121.89 61.1311C124.89 60.3884 133.751 55.148 134.555 54.5428C135.155 54.0889 137.568 52.4659 138.741 51.6819V42.109C138.441 42.4666 138.127 42.7967 137.773 43.0993Z" fill="#6F7994"/>
<path d="M83.3637 35.3832C83.3637 35.4382 83.3773 35.4932 83.391 35.5482C83.391 35.5895 83.391 35.617 83.3773 35.6583V35.672C83.3773 35.6995 83.3773 35.727 83.3773 35.7545C83.3773 35.782 83.3773 35.782 83.3773 35.782C83.3773 35.782 83.3773 35.8233 83.3773 35.8371C83.3773 35.8508 83.3773 35.8921 83.3773 35.9196C83.3773 35.9471 83.3773 35.9471 83.3773 35.9609V35.9746C83.3773 35.9884 83.3773 36.0021 83.3773 36.0021C83.3773 36.0021 83.3773 36.0159 83.3773 36.0296C83.3773 36.0434 83.3773 36.0571 83.3773 36.0571C83.391 36.0709 83.3773 36.0709 83.3773 36.0846L83.391 36.1259L83.4046 36.1534C83.4046 36.1672 83.4046 36.1809 83.4182 36.1947C83.4182 36.2084 83.4182 36.2222 83.4319 36.2222C83.4319 36.2359 83.4319 36.2497 83.4455 36.2634C83.4591 36.2772 83.4455 36.291 83.4591 36.3047C83.4728 36.3185 83.4728 36.3322 83.4728 36.3597C83.4728 36.3735 83.4864 36.3872 83.4864 36.401L83.5 36.456L83.5137 36.4973C83.5137 36.511 83.5273 36.5385 83.5273 36.5523C83.5273 36.566 83.5409 36.5798 83.5409 36.6073C83.5409 36.6211 83.5546 36.6486 83.5546 36.6623L83.5682 36.7173C83.5682 36.7448 83.5818 36.7586 83.5955 36.7861C83.6091 36.8136 83.6091 36.8136 83.6091 36.8411C83.6091 36.8549 83.6227 36.8961 83.6364 36.9099L83.65 36.9512C83.6636 36.9787 83.6636 37.0062 83.6773 37.0337C83.6909 37.0612 83.6909 37.0612 83.6909 37.0749C83.7045 37.1162 83.7181 37.1575 83.7318 37.2125L83.7591 37.2675C83.7727 37.295 83.7727 37.3225 83.7863 37.35C83.8 37.3775 83.8 37.405 83.8136 37.4188L83.8409 37.4876L83.8681 37.5563L83.8954 37.6251L83.9226 37.6939L83.9499 37.7764C83.9635 37.8039 83.9635 37.8314 83.9772 37.8452L84.0044 37.9277L84.0317 38.0102L84.059 38.0928L84.0862 38.1753C84.0999 38.2028 84.0999 38.2165 84.1135 38.2441L84.1408 38.3403C84.1544 38.3678 84.1544 38.3816 84.168 38.4091L84.2089 38.5054C84.2226 38.5329 84.2226 38.5604 84.2362 38.5742L84.2771 38.6704C84.2907 38.6979 84.2907 38.7117 84.3044 38.7392L84.3453 38.8355C84.3589 38.863 84.3589 38.8905 84.3725 38.9043L84.4134 39.0005L84.4271 39.0418C84.5225 39.3031 84.6316 39.5782 84.7406 39.8533C85.545 41.9439 86.4175 44.0759 86.4175 44.0759C86.4175 44.0759 88.1352 49.9214 92.7432 52.4384C93.8883 53.0574 95.0744 53.6076 96.2878 54.0889C98.9189 55.2306 101.455 55.822 103.022 55.822C104.454 56.0008 105.899 56.0696 107.33 56.0283C107.958 56.0008 108.53 55.9595 109.021 55.9045C109.035 55.9045 109.062 55.9045 109.075 55.9045C107.385 55.8908 105.708 55.6707 104.072 55.2168C103.063 54.928 102.15 54.6529 101.277 54.0614C100.446 53.5113 99.5597 53.0299 98.6599 52.6035C97.3647 51.957 96.0696 51.3106 94.9654 50.2653C94.6382 49.9627 94.2973 49.6876 93.9292 49.4263C93.3158 48.9724 92.6886 48.491 92.3478 47.9821C92.2797 47.8858 92.2251 47.7757 92.1706 47.6795C91.9661 47.1706 91.5162 46.7992 90.9845 46.7029C90.9027 46.6754 90.8073 46.6479 90.7255 46.6204C88.8714 46.0015 87.3854 43.2644 86.6901 41.5726C86.3766 40.8023 86.2403 40.0046 86.1039 39.2206C85.9676 38.4504 85.8313 37.6664 85.5313 36.9237C85.3541 36.4973 85.1632 36.0846 84.9451 35.672C84.877 35.5482 84.8224 35.4244 84.7543 35.3006C84.6861 35.1769 84.6452 35.0806 84.577 34.9568C84.2771 34.3654 83.9772 33.7602 83.7045 33.155C83.6227 32.9899 83.5546 32.8111 83.4728 32.6323C83.2819 33.5539 83.241 34.4754 83.3637 35.3832Z" fill="#6F7994"/>
<path d="M83.3638 35.3831C83.3638 35.4381 83.3774 35.4931 83.391 35.5481C83.3774 35.4931 83.3638 35.4381 83.3638 35.3831Z" fill="#A6A7A8"/>
<path d="M88.9806 0.32373H93.3568C93.2886 0.406256 93.2205 0.475027 93.1523 0.543798C92.4297 1.27277 88.5443 5.67413 88.0127 6.29308C87.481 6.91202 85.5042 9.22273 84.8089 10.048C84.1136 10.8732 83.432 11.4784 82.9821 12.2074C82.5322 12.9364 81.4143 14.4493 80.9371 15.8523C80.4736 17.2552 79.6693 18.837 79.5193 20.6663C79.3693 22.4956 79.5738 24.3386 79.4511 25.5215C79.3285 26.7044 77.0654 28.8363 76.9154 31.6146C76.9154 32.6875 77.488 36.3461 77.8288 38.478C77.3517 36.7587 76.2883 34.2692 75.593 32.1236V27.791C75.593 23.926 77.4335 18.4381 78.1696 16.4437C78.8922 14.4906 79.9828 11.8635 80.6236 10.4194C81.2643 8.97515 81.796 7.29714 83.3774 5.45407C84.2363 4.4225 86.8538 2.13929 88.9806 0.32373ZM138.686 42.508C138.686 42.508 134.092 47.7346 133.26 47.9822C132.429 48.2298 132.074 48.106 131.434 48.2573C130.807 48.4086 127.671 51.7371 127.671 51.7371C127.671 51.7371 124.658 52.865 122.886 53.7452C121.114 54.6255 115.32 58.1741 114.174 58.2154C113.029 58.2566 112.716 57.2113 111.516 57.2113C111.08 57.2113 106.526 59.1644 104.904 59.1644C103.282 59.1644 96.9422 57.6514 96.5469 57.6514C96.3288 57.6514 96.1243 57.679 95.9198 57.734C95.9198 57.734 102.654 60.5949 109.812 60.5261C113.929 60.4848 115.456 59.2744 116.533 59.2607C119.341 59.2332 120.282 58.4905 122.409 57.8027C125.094 56.95 127.616 56.111 128.298 55.6433C129.839 54.598 137.323 48.5736 138.686 47.4733V42.4943V42.508ZM133.492 0.32373H131.366C131.952 1.204 133.042 2.38687 135.019 3.55598C136.669 4.53253 137.078 7.26963 137.964 8.34246C138.155 8.57628 138.427 8.74133 138.727 8.8101V5.60536C138.714 2.68946 136.369 0.32373 133.492 0.32373ZM109.089 55.9322H109.035C108.544 55.9872 107.971 56.0284 107.344 56.056C105.899 56.111 104.468 56.0422 103.036 55.8496C101.468 55.8496 98.9327 55.272 96.3015 54.1166C95.0882 53.6352 93.9021 53.085 92.7569 52.4661C88.1353 49.9491 86.4312 44.1035 86.4312 44.1035C86.4312 44.1035 85.5587 42.0679 84.7544 39.8947C84.6453 39.6196 84.5499 39.3583 84.4408 39.0832L84.4272 39.0419L84.3863 38.9457C84.3727 38.9182 84.3727 38.8906 84.359 38.8769L84.3181 38.7806C84.3045 38.7531 84.3045 38.7394 84.2909 38.7118L84.25 38.6156C84.2363 38.5881 84.2363 38.5605 84.2227 38.5468L84.1818 38.4505C84.1682 38.423 84.1682 38.4092 84.1545 38.3817L84.1273 38.2855C84.1136 38.258 84.1136 38.2442 84.1 38.2167L84.0727 38.1342L84.0455 38.0516L84.0182 37.9691L83.9909 37.8866C83.9773 37.8591 83.9773 37.8316 83.9637 37.8178L83.9364 37.7353L83.9091 37.6665L83.8819 37.5977L83.8546 37.529L83.8273 37.4602C83.8137 37.4327 83.8137 37.4052 83.8001 37.3914C83.7864 37.3639 83.7864 37.3364 83.7728 37.3089L83.7455 37.2539C83.7319 37.2126 83.7183 37.1714 83.7046 37.1163C83.7046 37.1026 83.691 37.0888 83.691 37.0751C83.691 37.0613 83.6637 37.0201 83.6637 36.9926L83.6501 36.9513C83.6365 36.9238 83.6365 36.8963 83.6228 36.8825C83.6092 36.855 83.6092 36.855 83.6092 36.8275C83.6092 36.8138 83.5956 36.7862 83.5819 36.7587L83.5683 36.7037C83.5683 36.69 83.5547 36.6625 83.5547 36.6487C83.5547 36.635 83.541 36.6212 83.541 36.5937C83.541 36.5799 83.5274 36.5524 83.5274 36.5387L83.5138 36.4974L83.5001 36.4424C83.5001 36.4286 83.4865 36.4149 83.4865 36.4011C83.4865 36.3874 83.4729 36.3736 83.4729 36.3461C83.4729 36.3324 83.4729 36.3186 83.4592 36.3048C83.4456 36.2911 83.4456 36.2773 83.4456 36.2636C83.4456 36.2498 83.432 36.2361 83.432 36.2361C83.432 36.2223 83.432 36.2086 83.4183 36.1948L83.4047 36.1673L83.3911 36.126C83.3911 36.1123 83.3911 36.1123 83.3911 36.0985C83.3911 36.0848 83.3911 36.071 83.3911 36.071C83.3774 36.0573 83.3911 36.0573 83.3911 36.0435C83.3911 36.0298 83.3911 36.016 83.3911 36.016V36.0023C83.3911 35.9885 83.3911 35.9747 83.3911 35.961C83.3911 35.9472 83.3911 35.906 83.3911 35.8785C83.3911 35.851 83.3911 35.8372 83.3911 35.8235C83.3911 35.8097 83.3911 35.7959 83.3911 35.7959C83.3911 35.7959 83.3911 35.7409 83.3911 35.7134V35.6997C83.3911 35.6721 83.3911 35.6309 83.4047 35.5896C83.4047 35.5484 83.3911 35.4796 83.3774 35.4246C83.2547 34.5168 83.2956 33.5953 83.4729 32.7012C83.0912 31.821 82.7776 30.9132 82.5322 29.9779C82.3141 29.1939 82.1777 28.3962 82.1096 27.5847C81.946 29.0839 81.7688 31.037 81.7688 32.1511C81.7688 34.1454 82.9821 43.5396 83.5274 44.5574C84.0727 45.5752 85.5724 47.8034 87.3855 49.3714C89.1987 50.9394 92.4843 53.085 92.4843 53.085C92.4843 53.085 93.8203 53.649 94.3929 54.0891C94.9655 54.5292 96.1379 55.437 96.7105 55.6983C97.2831 55.9597 99.1781 56.8262 102.573 56.8262C105.967 56.8262 107.78 56.7849 108.503 56.6474C109.226 56.5098 110.834 56.056 111.434 55.547C110.671 55.7121 109.88 55.8496 109.089 55.9322Z" fill="url(#paint19_linear_3298_1048)"/>
<path d="M115.088 82.8904C115.278 83.0142 115.565 83.1105 115.851 83.1105C116.287 83.1105 116.546 82.8767 116.546 82.5466C116.546 82.2302 116.369 82.0514 115.919 81.8864C115.374 81.6938 115.047 81.405 115.047 80.9373C115.047 80.4147 115.469 80.0295 116.11 80.0295C116.451 80.0295 116.696 80.1121 116.846 80.1946L116.723 80.5522C116.614 80.4972 116.396 80.3872 116.096 80.3872C115.646 80.3872 115.469 80.6622 115.469 80.8823C115.469 81.1987 115.674 81.35 116.124 81.5288C116.683 81.7488 116.969 82.0239 116.969 82.5053C116.969 83.0142 116.587 83.4681 115.81 83.4681C115.497 83.4681 115.142 83.3718 114.965 83.2618L115.088 82.8904ZM118.141 80.3459C118.141 80.4972 118.032 80.6072 117.869 80.6072C117.719 80.6072 117.61 80.4834 117.61 80.3459C117.61 80.1946 117.719 80.0708 117.882 80.0708C118.032 80.0708 118.141 80.1946 118.141 80.3459ZM117.651 83.4131V81.0198H118.087V83.4131H117.651ZM120.854 81.0198C120.841 81.1987 120.841 81.3912 120.841 81.6801V83.0692C120.841 83.6194 120.732 83.9495 120.5 84.1696C120.268 84.3896 119.941 84.4584 119.641 84.4584C119.355 84.4584 119.041 84.3896 118.85 84.2659L118.959 83.9358C119.123 84.032 119.368 84.1283 119.655 84.1283C120.091 84.1283 120.418 83.8945 120.418 83.2893V83.028H120.404C120.268 83.248 120.023 83.4268 119.655 83.4268C119.068 83.4268 118.646 82.9179 118.646 82.2577C118.646 81.4462 119.177 80.9786 119.709 80.9786C120.118 80.9786 120.35 81.1987 120.445 81.3912H120.459L120.473 81.0336L120.854 81.0198ZM120.404 81.9689C120.404 81.9001 120.404 81.8313 120.377 81.7763C120.295 81.5288 120.091 81.3224 119.777 81.3224C119.368 81.3224 119.068 81.6801 119.068 82.2302C119.068 82.6979 119.3 83.0967 119.764 83.0967C120.023 83.0967 120.268 82.9317 120.363 82.6566C120.391 82.5878 120.404 82.4916 120.404 82.4228V81.9689ZM121.413 81.6663C121.413 81.4187 121.413 81.2124 121.4 81.0198H121.781L121.809 81.4187H121.822C121.945 81.1849 122.218 80.9648 122.613 80.9648C122.94 80.9648 123.458 81.1574 123.458 81.9826V83.4131H123.022V82.0377C123.022 81.6525 122.886 81.3362 122.477 81.3362C122.19 81.3362 121.972 81.5425 121.904 81.7763C121.89 81.8313 121.877 81.9001 121.877 81.9826V83.4268H121.441V81.6663H121.413ZM125.462 83.4131L125.421 83.1105H125.408C125.271 83.3031 125.026 83.4681 124.685 83.4681C124.208 83.4681 123.963 83.1242 123.963 82.7804C123.963 82.2027 124.467 81.8864 125.394 81.8864V81.8314C125.394 81.6388 125.34 81.2812 124.849 81.2812C124.631 81.2812 124.399 81.35 124.235 81.46L124.14 81.1712C124.331 81.0474 124.617 80.9648 124.917 80.9648C125.639 80.9648 125.817 81.46 125.817 81.9414V82.8354C125.817 83.0417 125.83 83.248 125.858 83.4131H125.462ZM125.394 82.189C124.917 82.1752 124.385 82.2577 124.385 82.7254C124.385 83.0142 124.576 83.138 124.794 83.138C125.108 83.138 125.299 82.9454 125.367 82.7391C125.38 82.6979 125.394 82.6429 125.394 82.6016V82.189ZM126.907 80.3321V81.0198H127.521V81.35H126.907V82.6428C126.907 82.9454 126.989 83.1105 127.235 83.1105C127.344 83.1105 127.425 83.0967 127.48 83.083L127.494 83.4131C127.412 83.4544 127.275 83.4681 127.112 83.4681C126.907 83.4681 126.744 83.3993 126.648 83.2893C126.526 83.1655 126.485 82.9454 126.485 82.6704V81.3637H126.117V81.0336H126.485V80.4559L126.907 80.3321ZM130.002 82.7666C130.002 83.0142 130.002 83.2343 130.016 83.4268H129.634L129.607 83.0417H129.593C129.484 83.2343 129.225 83.4819 128.802 83.4819C128.434 83.4819 127.984 83.2755 127.984 82.4365V81.0336H128.421V82.354C128.421 82.8079 128.557 83.1105 128.952 83.1105C129.239 83.1105 129.443 82.9042 129.525 82.7116C129.552 82.6428 129.566 82.5741 129.566 82.4916V81.0198H130.002V82.7666ZM130.725 81.7626C130.725 81.4737 130.725 81.2399 130.711 81.0198H131.093L131.106 81.4875H131.12C131.229 81.1711 131.488 80.9648 131.774 80.9648C131.829 80.9648 131.856 80.9648 131.897 80.9786V81.3912C131.856 81.3775 131.815 81.3775 131.747 81.3775C131.447 81.3775 131.229 81.6113 131.174 81.9414C131.161 81.9964 131.161 82.0652 131.161 82.1477V83.4268H130.738L130.725 81.7626ZM132.415 82.299C132.429 82.8904 132.797 83.1242 133.233 83.1242C133.547 83.1242 133.724 83.0692 133.887 83.0005L133.956 83.3168C133.806 83.3856 133.547 83.4681 133.165 83.4681C132.429 83.4681 131.992 82.9867 131.992 82.2577C131.992 81.5288 132.415 80.9648 133.11 80.9648C133.887 80.9648 134.092 81.6525 134.092 82.0927C134.092 82.1752 134.078 82.2577 134.078 82.299H132.415ZM133.683 81.9826C133.683 81.7076 133.574 81.2812 133.083 81.2812C132.647 81.2812 132.456 81.6938 132.415 81.9826H133.683Z" fill="url(#paint20_linear_3298_1048)"/>
</g>
<defs>
<linearGradient id="paint0_linear_3298_1048" x1="7.34627" y1="10.2611" x2="38.7713" y2="10.2611" gradientUnits="userSpaceOnUse">
<stop stop-color="#D6D7D9"/>
<stop offset="0.6" stop-color="#F1F1F2"/>
<stop offset="1" stop-color="#BCBDC0"/>
</linearGradient>
<linearGradient id="paint1_linear_3298_1048" x1="10.9591" y1="18.1972" x2="16.5974" y2="18.1972" gradientUnits="userSpaceOnUse">
<stop stop-color="#D6D7D9"/>
<stop offset="0.6" stop-color="#F1F1F2"/>
<stop offset="1" stop-color="#BCBDC0"/>
</linearGradient>
<linearGradient id="paint2_linear_3298_1048" x1="17.4408" y1="18.1147" x2="18.4346" y2="18.1147" gradientUnits="userSpaceOnUse">
<stop stop-color="#D6D7D9"/>
<stop offset="0.6" stop-color="#F1F1F2"/>
<stop offset="1" stop-color="#BCBDC0"/>
</linearGradient>
<linearGradient id="paint3_linear_3298_1048" x1="19.1339" y1="18.1423" x2="19.8264" y2="18.1423" gradientUnits="userSpaceOnUse">
<stop stop-color="#D6D7D9"/>
<stop offset="0.6" stop-color="#F1F1F2"/>
<stop offset="1" stop-color="#BCBDC0"/>
</linearGradient>
<linearGradient id="paint4_linear_3298_1048" x1="20.5914" y1="19.0437" x2="23.9861" y2="19.0437" gradientUnits="userSpaceOnUse">
<stop stop-color="#D6D7D9"/>
<stop offset="0.6" stop-color="#F1F1F2"/>
<stop offset="1" stop-color="#BCBDC0"/>
</linearGradient>
<linearGradient id="paint5_linear_3298_1048" x1="24.4997" y1="19.0718" x2="27.5411" y2="19.0718" gradientUnits="userSpaceOnUse">
<stop stop-color="#D6D7D9"/>
<stop offset="0.6" stop-color="#F1F1F2"/>
<stop offset="1" stop-color="#BCBDC0"/>
</linearGradient>
<linearGradient id="paint6_linear_3298_1048" x1="28.0821" y1="19.7928" x2="31.4904" y2="19.7928" gradientUnits="userSpaceOnUse">
<stop stop-color="#D6D7D9"/>
<stop offset="0.6" stop-color="#F1F1F2"/>
<stop offset="1" stop-color="#BCBDC0"/>
</linearGradient>
<linearGradient id="paint7_linear_3298_1048" x1="32.1121" y1="19.0437" x2="35.5067" y2="19.0437" gradientUnits="userSpaceOnUse">
<stop stop-color="#D6D7D9"/>
<stop offset="0.6" stop-color="#F1F1F2"/>
<stop offset="1" stop-color="#BCBDC0"/>
</linearGradient>
<linearGradient id="paint8_linear_3298_1048" x1="37.2488" y1="18.2108" x2="40.7606" y2="18.2108" gradientUnits="userSpaceOnUse">
<stop stop-color="#D6D7D9"/>
<stop offset="0.6" stop-color="#F1F1F2"/>
<stop offset="1" stop-color="#BCBDC0"/>
</linearGradient>
<linearGradient id="paint9_linear_3298_1048" x1="41.2773" y1="18.1423" x2="41.9684" y2="18.1423" gradientUnits="userSpaceOnUse">
<stop stop-color="#D6D7D9"/>
<stop offset="0.6" stop-color="#F1F1F2"/>
<stop offset="1" stop-color="#BCBDC0"/>
</linearGradient>
<linearGradient id="paint10_linear_3298_1048" x1="42.7345" y1="19.0579" x2="45.7745" y2="19.0579" gradientUnits="userSpaceOnUse">
<stop stop-color="#D6D7D9"/>
<stop offset="0.6" stop-color="#F1F1F2"/>
<stop offset="1" stop-color="#BCBDC0"/>
</linearGradient>
<linearGradient id="paint11_linear_3298_1048" x1="46.5584" y1="18.9879" x2="49.5903" y2="18.9879" gradientUnits="userSpaceOnUse">
<stop stop-color="#D6D7D9"/>
<stop offset="0.6" stop-color="#F1F1F2"/>
<stop offset="1" stop-color="#BCBDC0"/>
</linearGradient>
<linearGradient id="paint12_linear_3298_1048" x1="103.65" y1="72.9459" x2="134.269" y2="72.9459" gradientUnits="userSpaceOnUse">
<stop stop-color="#ABB3B6"/>
<stop offset="0.31" stop-color="#F7F7F6"/>
<stop offset="0.6" stop-color="#B1B9BD"/>
<stop offset="1" stop-color="#C7CDCF"/>
</linearGradient>
<linearGradient id="paint13_linear_3298_1048" x1="14.6892" y1="32.9" x2="34.3578" y2="39.9965" gradientUnits="userSpaceOnUse">
<stop stop-color="#D6D7D9"/>
<stop offset="0.6" stop-color="#F1F1F2"/>
<stop offset="1" stop-color="#BCBDC0"/>
</linearGradient>
<linearGradient id="paint14_linear_3298_1048" x1="86.4837" y1="13.4761" x2="139.057" y2="13.4761" gradientUnits="userSpaceOnUse">
<stop stop-color="#A9ABAC"/>
<stop offset="0.6" stop-color="#E2E3E3"/>
<stop offset="1" stop-color="#A1A2A4"/>
</linearGradient>
<linearGradient id="paint15_linear_3298_1048" x1="86.484" y1="37.2686" x2="139.057" y2="37.2686" gradientUnits="userSpaceOnUse">
<stop stop-color="#A9ABAC"/>
<stop offset="0.6" stop-color="#E2E3E3"/>
<stop offset="1" stop-color="#A1A2A4"/>
</linearGradient>
<linearGradient id="paint16_linear_3298_1048" x1="86.4864" y1="19.9134" x2="139.06" y2="19.9134" gradientUnits="userSpaceOnUse">
<stop stop-color="#A9ABAC"/>
<stop offset="0.6" stop-color="#E2E3E3"/>
<stop offset="1" stop-color="#A1A2A4"/>
</linearGradient>
<linearGradient id="paint17_linear_3298_1048" x1="86.4838" y1="6.25851" x2="139.057" y2="6.25851" gradientUnits="userSpaceOnUse">
<stop stop-color="#A9ABAC"/>
<stop offset="0.6" stop-color="#E2E3E3"/>
<stop offset="1" stop-color="#A1A2A4"/>
</linearGradient>
<linearGradient id="paint18_linear_3298_1048" x1="97.6055" y1="27.2479" x2="128.324" y2="27.2479" gradientUnits="userSpaceOnUse">
<stop stop-color="#A9ABAC"/>
<stop offset="0.6" stop-color="#E2E3E3"/>
<stop offset="1" stop-color="#A1A2A4"/>
</linearGradient>
<linearGradient id="paint19_linear_3298_1048" x1="99.2481" y1="-3.44657" x2="121.863" y2="58.1385" gradientUnits="userSpaceOnUse">
<stop offset="0.28" stop-color="#A6A7A8"/>
<stop offset="0.66" stop-color="#D9DADB"/>
<stop offset="1" stop-color="#D9DADB"/>
</linearGradient>
<linearGradient id="paint20_linear_3298_1048" x1="114.986" y1="82.244" x2="134.113" y2="82.244" gradientUnits="userSpaceOnUse">
<stop stop-color="#ABB3B6"/>
<stop offset="0.31" stop-color="#F7F7F6"/>
<stop offset="0.6" stop-color="#B1B9BD"/>
<stop offset="1" stop-color="#C7CDCF"/>
</linearGradient>
<clipPath id="clip0_3298_1048">
<rect width="138.116" height="87.7521" fill="white" transform="translate(0.625244 0.309814)"/>
</clipPath>
</defs>
</svg>
