<svg width="404" height="198" viewBox="0 0 404 198" fill="none" xmlns="http://www.w3.org/2000/svg">
<g clip-path="url(#clip0_558_4321)">
<path d="M463.975 10.3252C451.095 26.9477 372.503 120.907 186.344 198.561" stroke="#B3D57D" stroke-width="1.5" stroke-miterlimit="10"/>
<path d="M463.977 56.9141C424.919 90.327 355.116 138.357 243.067 179.023C165.779 207.129 84.3638 230.649 -0.0898438 249.268" stroke="#48A9C5" stroke-width="1.5" stroke-miterlimit="10"/>
<path d="M169.176 275.261C272.684 235.403 354.071 165.794 413.028 112.472C434.711 92.8611 448.704 82.0308 466.04 69.7056" stroke="#2774AE" stroke-width="1.5" stroke-miterlimit="10"/>
<path d="M466.334 114.425C430.572 132.125 393.122 148.479 354.187 163.399C318.917 176.952 283.636 188.961 249.152 199.583C54.8434 259.435 60.6828 275.262 60.6828 275.262" stroke="#2774AE" stroke-width="1.5" stroke-miterlimit="10"/>
</g>
<defs>
<clipPath id="clip0_558_4321">
<rect width="464" height="249" fill="white"/>
</clipPath>
</defs>
</svg>
