<svg width="52" height="81" viewBox="0 0 52 81" fill="none" xmlns="http://www.w3.org/2000/svg">
<g id="Group 631637">
<path id="Fill 2" fill-rule="evenodd" clip-rule="evenodd" d="M39.1984 13.3887C39.9799 14.1662 39.2452 16.1949 37.5523 18.1805L33.1466 22.4192L36.1073 41.8371L33.512 44.4189L27.0146 28.3197L18.7636 36.2585L19.5518 41.4514L18.0249 43.1111L14.7784 37.6616L9.3004 34.432L10.9693 32.9137L16.1933 33.6983L24.1837 25.4947L7.98632 19.0261L10.5816 16.4443L30.1268 19.3929L34.381 15.0257C36.3769 13.3416 38.4163 12.6107 39.1984 13.3887Z" fill="#D0F8A6"/>
<path id="Fill 3" fill-rule="evenodd" clip-rule="evenodd" d="M45.8465 55.7177C46.1894 56.0588 45.867 56.949 45.1242 57.8202L43.1911 59.68L44.4902 68.2002L43.3514 69.333L40.5005 62.2691L36.8802 65.7524L37.226 68.0309L36.5561 68.7592L35.1316 66.3681L32.728 64.951L33.4603 64.2848L35.7524 64.6291L39.2584 61.0295L32.1514 58.1912L33.2902 57.0584L41.8661 58.3522L43.7327 56.436C44.6085 55.697 45.5033 55.3763 45.8465 55.7177Z" fill="#01426A"/>
<path id="Fill 1" fill-rule="evenodd" clip-rule="evenodd" d="M25.4975 55.9932C26.0079 56.5009 25.5281 57.8258 24.4225 59.1225L21.5453 61.8906L23.4789 74.5717L21.784 76.2578L17.5408 65.744L12.1524 70.9285L12.6671 74.3199L11.67 75.4037L9.54982 71.8449L5.97233 69.7357L7.06224 68.7442L10.4738 69.2566L15.692 63.8991L5.11415 59.6747L6.80904 57.9887L19.5733 59.9143L22.3515 57.0622C23.655 55.9624 24.9868 55.4851 25.4975 55.9932Z" fill="#099DC5"/>
</g>
</svg>
