<svg width="110" height="110" viewBox="0 0 110 110" fill="none" xmlns="http://www.w3.org/2000/svg">
<circle cx="55" cy="55" r="55" fill="#01426A"/>
<path d="M25.8126 62.3034C25.7534 62.0317 25.7174 61.7555 25.7048 61.4778C25.6805 61.1188 25.6685 60.7598 25.6689 60.4008C25.1865 61.2388 24.4819 61.8432 23.555 62.2139C22.6667 62.5773 21.716 62.7662 20.7554 62.77C19.6716 62.77 18.7143 62.5847 17.8835 62.2139C17.0834 61.8704 16.3646 61.3641 15.7735 60.7277C15.1824 60.0912 14.732 59.3387 14.4515 58.5186C14.1464 57.6462 13.9938 56.7283 14.0002 55.8046V44.6416H18.8054V54.839C18.8054 55.8446 19.0641 56.6882 19.5815 57.3697C20.099 58.0512 20.9239 58.3923 22.0562 58.3929C23.14 58.3929 23.9705 58.0699 24.5477 57.424C25.1249 56.778 25.4138 55.9403 25.4144 54.9109V44.644H30.2196V59.1109C30.2196 59.8061 30.2378 60.4343 30.2742 60.9955C30.3106 61.5567 30.3526 61.9927 30.4002 62.3034H25.8126Z" fill="white"/>
<path d="M34.3008 69.1243V44.6418H38.9603V46.7958C39.3695 46.1026 40.0438 45.5042 40.9832 45.0008C41.9226 44.4974 43.0664 44.2461 44.4147 44.2471C45.716 44.2471 46.8723 44.4804 47.8836 44.947C48.8759 45.4007 49.7573 46.0632 50.4666 46.8887C51.1757 47.714 51.7113 48.6832 52.0735 49.7964C52.4358 50.9097 52.6164 52.1243 52.6154 53.4403C52.6154 54.7808 52.4168 56.0188 52.0194 57.1542C51.622 58.2896 51.056 59.2708 50.3214 60.0977C49.5859 60.9245 48.6815 61.586 47.6684 62.0379C46.6326 62.5045 45.4887 62.7379 44.2369 62.7379C43.0075 62.7379 41.9534 62.5284 41.0747 62.1094C40.196 61.6904 39.54 61.1825 39.1069 60.5857V69.1243H34.3008ZM47.8831 53.4727C47.8831 51.8938 47.4552 50.6733 46.5995 49.8112C45.7438 48.9491 44.7026 48.519 43.4761 48.5209C42.8896 48.5133 42.3078 48.6258 41.767 48.8512C41.2261 49.0766 40.7377 49.4102 40.332 49.8312C39.9073 50.2734 39.5809 50.7993 39.3738 51.3748C39.1441 51.9846 39.0298 52.6845 39.0307 53.4746C39.0317 54.2647 39.146 54.9648 39.3738 55.5748C39.5841 56.1543 39.91 56.6855 40.332 57.1366C40.7287 57.5587 41.2085 57.8954 41.7416 58.1255C42.2899 58.357 42.8804 58.4731 43.4761 58.4664C44.7036 58.4664 45.7447 58.0297 46.5995 57.1561C47.4543 56.2825 47.8821 55.0547 47.8831 53.4727Z" fill="white"/>
<path d="M55.6484 62.304V36.6035H60.454V62.3025L55.6484 62.304Z" fill="white"/>
<path d="M69.3398 44.6436H64.5352V62.3054H69.3398V44.6436Z" fill="white"/>
<path d="M82.3497 40.2626C82.0632 40.2652 81.7781 40.3014 81.5002 40.3707C81.2055 40.4388 80.9281 40.5668 80.6857 40.7468C80.432 40.9425 80.228 41.1947 80.0901 41.4829C79.9336 41.7943 79.8552 42.2013 79.8549 42.7037V44.6421H83.8647V48.7369H79.8563V62.3068H75.0171V48.7369H72.0547V44.6421H75.0171V42.6318C75.0171 41.6272 75.1674 40.7236 75.468 39.9212C75.7503 39.1498 76.1934 38.4464 76.7683 37.8571C77.3458 37.2751 78.0417 36.8224 78.8094 36.5292C79.6038 36.2181 80.4948 36.0626 81.4825 36.0626C81.9602 36.0605 82.4374 36.0965 82.9093 36.1702C83.3539 36.2419 83.6734 36.3257 83.8676 36.4216V40.4421C83.692 40.3811 83.5103 40.3389 83.3257 40.3164C83.002 40.2759 82.6759 40.2579 82.3497 40.2626Z" fill="white"/>
<path d="M92.4237 44.6422H96.0004V48.8798H92.4237V56.2733C92.4237 57.0395 92.5994 57.572 92.9507 57.8707C93.3021 58.1694 93.8256 58.3191 94.5213 58.3197C94.811 58.3197 95.0999 58.3076 95.388 58.2835C95.6755 58.2602 95.8815 58.224 96.0028 58.1759V62.1245C95.7855 62.2197 95.4543 62.315 95.009 62.4102C94.5638 62.5054 93.992 62.553 93.2938 62.553C91.5603 62.553 90.1868 62.0744 89.1733 61.117C88.1598 60.1597 87.654 58.8195 87.6559 57.0965V48.8779H84.4414V44.6403H85.3441C86.2835 44.6403 86.976 44.3705 87.4216 43.8309C87.8672 43.2912 88.0898 42.627 88.0895 41.8382V39.3623H92.4241L92.4237 44.6422Z" fill="white"/>
<path d="M69.9014 38.9706C69.9014 38.1812 69.6122 37.4987 69.0337 36.9232C68.7623 36.6451 68.4364 36.4252 68.0761 36.2771C67.7158 36.1289 67.3288 36.0557 66.939 36.0619C66.0957 36.0619 65.3914 36.349 64.8261 36.9232C64.2607 37.4974 63.9775 38.1799 63.9766 38.9706C63.9766 39.76 64.2658 40.4425 64.8443 41.018C65.1156 41.2962 65.4415 41.5162 65.8018 41.6644C66.1621 41.8125 66.5491 41.8857 66.939 41.8793C67.7813 41.8793 68.4856 41.5922 69.052 41.018C69.6183 40.4438 69.9014 39.7613 69.9014 38.9706Z" fill="#1FAA9F"/>
<path d="M88.7462 66.6547C88.4447 66.3572 88.0409 66.1843 87.6163 66.1708C87.1916 66.1573 86.7775 66.3041 86.4575 66.5818C82.5698 69.9943 77.6659 71.9964 72.4832 71.9964C67.3005 71.9964 62.3967 69.9967 58.5095 66.5818C58.1894 66.3041 57.7754 66.1573 57.3507 66.1708C56.926 66.1843 56.5223 66.3572 56.2207 66.6547C56.0626 66.8104 55.9368 66.9957 55.8507 67.1997C55.7646 67.4038 55.7197 67.6227 55.7188 67.844C55.7178 68.0653 55.7607 68.2846 55.845 68.4894C55.9293 68.6943 56.0534 68.8806 56.2102 69.0377C56.2389 69.0668 56.2691 69.0949 56.3002 69.1215C60.7988 73.0601 66.4841 75.3542 72.4847 75.3542C78.4853 75.3542 84.1682 73.0601 88.6667 69.1215C89.0057 68.8279 89.2133 68.4124 89.2441 67.9666C89.2748 67.5207 89.1261 67.081 88.8306 66.7442C88.8047 66.7132 88.7755 66.6837 88.7462 66.6547Z" fill="#1FAA9F"/>
</svg>
